<svg width="103" height="112" viewBox="0 0 103 112" fill="none" xmlns="http://www.w3.org/2000/svg">
<path d="M36.5625 39.756H30.5293V38.3751L34.5272 33.3602H30.602V31.9792H36.5625V33.2875L32.4919 38.3751H36.5625V39.756Z" fill="black"/>
<path d="M41.0684 31.9792H42.8129L44.4847 37.8663L46.1566 31.9792H47.8284L45.2116 39.756H43.6852L41.0684 31.9792Z" fill="black"/>
<path d="M58.2247 36.4127H54.4449V38.3751H58.7335V39.756H52.8457V31.9792H58.5154V33.3602H54.3722V35.0318H58.152V36.4127H58.2247Z" fill="black"/>
<path d="M36.5625 52.3297H30.5293V50.9488L34.5272 45.9339H30.602V44.553H36.5625V45.8612L32.4919 50.9488H36.5625V52.3297Z" fill="black"/>
<path d="M44.4863 52.3297H41.1426V44.553H44.4863C44.9951 44.553 45.3585 44.6257 45.722 44.6983C46.3035 44.8437 46.7396 45.2071 47.0304 45.7159C47.3211 46.0793 47.4665 46.5153 47.6119 46.9514C47.6846 47.3875 47.7573 47.8236 47.7573 48.2597C47.7573 49.2772 47.5392 50.1493 47.1031 50.8761C46.5216 51.8937 45.6493 52.3297 44.4863 52.3297ZM45.722 46.588C45.5039 46.1519 44.9951 45.9339 44.2682 45.9339H42.7417V51.0215H44.2682C45.0678 51.0215 45.5766 50.6581 45.8673 49.8586C46.0127 49.4225 46.0854 48.9138 46.0854 48.405C46.0854 47.6055 45.94 46.9514 45.722 46.588Z" fill="black"/>
<path d="M58.2247 48.9138H54.4449V50.8761H58.7335V52.3297H52.8457V44.553H58.5154V45.9339H54.3722V47.6055H58.152V48.9138H58.2247Z" fill="black"/>
<path d="M47.4656 58.6527C47.9744 59.3068 48.2651 60.2517 48.2651 61.2692C48.2651 62.4321 47.9744 63.3769 47.3929 64.1764C46.7387 65.0486 45.721 65.5573 44.4126 65.5573C43.2496 65.5573 42.3047 65.1939 41.5778 64.3944C40.9963 63.6676 40.6328 62.6501 40.6328 61.4872C40.6328 60.4697 40.9236 59.5249 41.4324 58.7981C42.0866 57.8532 43.1042 57.3445 44.4126 57.3445C45.7937 57.3445 46.8114 57.7806 47.4656 58.6527ZM46.5206 63.595C46.9567 62.9408 47.1748 62.1414 47.1748 61.3419C47.1748 60.397 46.9567 59.6702 46.4479 59.1615C45.9391 58.58 45.2849 58.362 44.4853 58.362C43.6857 58.362 43.0315 58.6527 42.5227 59.1615C42.0139 59.7429 41.7958 60.5424 41.7958 61.6326C41.7958 62.5048 42.0139 63.2316 42.45 63.813C42.8862 64.3945 43.6131 64.6852 44.558 64.6852C45.4303 64.5398 46.0845 64.2491 46.5206 63.595Z" fill="black"/>
<path d="M52.6992 57.5627H56.1883C56.7698 57.5627 57.2786 57.6354 57.6421 57.8535C58.3689 58.2169 58.7324 58.7983 58.7324 59.6705C58.7324 60.1065 58.6597 60.5426 58.4416 60.8333C58.2236 61.1241 58.0055 61.3421 57.6421 61.5601C57.9328 61.7055 58.1509 61.8509 58.2963 62.0689C58.4416 62.287 58.5143 62.5777 58.587 63.0137L58.6597 64.0313C58.6597 64.322 58.6597 64.54 58.7324 64.6854C58.8051 64.9034 58.8778 65.1215 59.0958 65.1942V65.3395H57.7874C57.7874 65.2668 57.7147 65.1942 57.7147 65.0488C57.7147 64.9761 57.6421 64.7581 57.6421 64.4674L57.5694 63.1591C57.5694 62.6504 57.3513 62.287 56.9879 62.1416C56.7698 62.0689 56.479 61.9962 56.0429 61.9962H53.7169V65.3395H52.6992V57.5627ZM56.0429 61.0514C56.5517 61.0514 56.9152 60.9787 57.2059 60.7607C57.4967 60.5426 57.6421 60.1792 57.6421 59.6705C57.6421 59.089 57.424 58.7256 57.0605 58.5076C56.8425 58.4349 56.5517 58.3622 56.1883 58.3622H53.7169V61.0514H56.0429Z" fill="black"/>
<path d="M64.4028 57.5627H65.4204V65.3395H64.3301V57.5627H64.4028Z" fill="black"/>
<path d="M47.4656 70.7905C47.9744 71.4446 48.2651 72.3894 48.2651 73.4069C48.2651 74.5698 47.9744 75.5147 47.3929 76.3141C46.7387 77.1863 45.721 77.6951 44.4126 77.6951C43.2496 77.6951 42.3047 77.3317 41.5778 76.5322C40.9963 75.8054 40.6328 74.7879 40.6328 73.625C40.6328 72.6075 40.9236 71.6626 41.4324 70.9358C42.0866 69.991 43.1042 69.4822 44.4126 69.4822C45.7937 69.4095 46.8114 69.9183 47.4656 70.7905ZM46.5206 75.7327C46.9567 75.0786 47.1748 74.2791 47.1748 73.4796C47.1748 72.5348 46.9567 71.808 46.4479 71.2992C45.9391 70.7178 45.2849 70.4997 44.4853 70.4997C43.6857 70.4997 43.0315 70.7905 42.5227 71.2992C42.0139 71.8807 41.7958 72.6801 41.7958 73.7703C41.7958 74.6425 42.0139 75.3693 42.45 75.9507C42.8862 76.5322 43.6131 76.8229 44.558 76.8229C45.4303 76.6775 46.0845 76.3868 46.5206 75.7327Z" fill="black"/>
<path d="M52.7715 69.6274H54.0072L57.8597 75.8779V69.6274H58.8773V77.4042H57.7143L53.7891 71.1537V77.4042H52.7715V69.6274Z" fill="black"/>
<path d="M65.492 69.6274H66.655L69.4898 77.4042H68.3268L67.5272 75.0784H64.4743L63.6021 77.4042H62.5117L65.492 69.6274ZM67.2365 74.2063L66.0735 70.7903L64.8378 74.2063H67.2365Z" fill="black"/>
<path d="M21.9515 98.6268V98.1907L18.5352 14.8267H63.9656L64.0383 15.0447L96.821 85.9078L96.3848 85.9804L21.9515 98.6268ZM19.3347 15.5535L22.6784 97.8273L95.8033 85.3263L63.5295 15.5535H19.3347Z" fill="black"/>
<path d="M38.8877 103.86L6.17773 33.3601L53.8616 8.06738L86.0627 29.5807V29.7987L83.664 88.0155L38.8877 103.86ZM7.12269 33.7235L39.2511 102.988L83.0825 87.434L85.4085 29.9441L53.8616 8.93954L7.12269 33.7235Z" fill="black"/>
</svg>
