<svg width="84" height="90" viewBox="0 0 84 90" fill="none" xmlns="http://www.w3.org/2000/svg">
<path d="M60.1171 20.959H22.6465V64.9316H60.1171V20.959Z" fill="white"/>
<path d="M47.7648 47.2603C47.7648 47.2603 47.3531 47.2603 46.9413 47.2603H44.4707V49.726H46.5295C46.9413 49.726 47.3531 49.726 47.7648 49.315C48.1766 49.315 48.1766 48.9041 48.1766 48.4931C48.1766 48.0822 48.1766 47.6712 47.7648 47.2603Z" fill="#035B8C"/>
<path d="M36.2362 47.2603C35.4127 47.2603 35.0009 47.6712 34.5892 48.0822C34.1774 48.4931 33.7656 49.315 33.7656 50.137C33.7656 50.9589 33.7656 51.7808 34.1774 52.1918C34.5892 52.6027 35.4127 53.0137 36.2362 53.0137C37.0597 53.0137 37.8833 52.6027 37.8833 52.1918C38.295 51.7808 38.295 50.9589 38.295 50.137C38.295 49.315 37.8833 48.4931 37.4715 48.0822C37.4715 47.2603 37.0597 47.2603 36.2362 47.2603Z" fill="#035B8C"/>
<path d="M36.2362 57.9453C35.4127 57.9453 35.0009 58.3563 34.5892 58.7672C34.1774 59.1782 33.7656 60.0001 33.7656 60.822C33.7656 61.6439 33.7656 62.4659 34.1774 62.8768C34.5892 63.2878 35.4127 63.6987 36.2362 63.6987C37.0597 63.6987 37.8833 63.2878 37.8833 62.8768C38.295 62.4659 38.295 61.6439 38.295 60.822C38.295 60.0001 37.8833 59.1782 37.4715 58.7672C37.4715 58.3563 37.0597 57.9453 36.2362 57.9453Z" fill="#035B8C"/>
<path d="M53.9421 7.80811H12.7656L15.648 83.4245L82.7656 69.8629L53.9421 7.80811ZM54.3539 46.4382H55.1774V53.4245H54.3539V46.4382ZM44.0597 23.0136H49.4127V24.2465H45.295V25.8903H48.5892V27.1232H45.295V28.767H49.4127V29.9999H44.0597V23.0136ZM44.0597 34.5204H49.4127V35.7533H45.295V37.3971H48.5892V38.63H45.295V40.2739H49.4127V41.5067H44.0597V34.5204ZM34.5892 23.0136L36.2362 28.3561L37.8833 23.0136H39.5303L36.648 30.4108H35.4127L32.9421 23.0136H34.5892ZM39.1186 37.8081C39.1186 38.63 39.1186 39.4519 38.7068 40.2739C38.295 41.0958 37.4715 41.5067 36.2362 41.5067H33.3539V34.5204H36.2362C36.648 34.5204 37.0597 34.5204 37.4715 34.5204C37.8833 34.5204 38.295 34.9314 38.7068 35.3424C38.7068 36.1643 39.1186 36.5752 39.1186 36.9862C39.1186 37.3971 39.1186 37.8081 39.1186 37.8081ZM28.8244 41.5067H23.4715V40.2739L27.1774 35.7533H23.4715V34.5204H28.8244V35.7533L25.1186 40.2739H28.8244V41.5067ZM28.8244 30.4108H23.4715V29.178L27.1774 24.6574H23.4715V23.0136H28.8244V24.2465L25.1186 29.178H28.8244V30.4108ZM38.7068 63.2876C37.8833 64.1095 37.0597 64.5204 35.8244 64.5204C34.5892 64.5204 33.7656 64.1095 33.3539 63.2876C32.9421 62.4656 32.5303 61.6437 32.5303 60.8218C32.5303 59.9999 32.9421 59.178 33.3539 58.3561C33.7656 57.5341 35.0009 57.1232 36.2362 57.1232C37.4715 57.1232 38.295 57.5341 39.1186 58.3561C39.5303 59.178 39.9421 59.5889 39.9421 60.8218C39.5303 62.0547 39.5303 62.8766 38.7068 63.2876ZM38.7068 52.6026C37.8833 53.4245 37.0597 53.8355 35.8244 53.8355C34.5892 53.8355 33.7656 53.4245 33.3539 52.6026C32.9421 51.7807 32.5303 50.9588 32.5303 50.1369C32.5303 49.315 32.9421 48.493 33.3539 47.6711C33.7656 46.8492 35.0009 46.4382 36.2362 46.4382C37.4715 46.4382 38.295 46.8492 39.1186 47.6711C39.5303 48.493 39.9421 48.904 39.9421 50.1369C39.5303 50.9588 39.5303 51.7807 38.7068 52.6026ZM49.4127 64.5204H48.1774L44.4715 58.767V64.5204H43.648V57.5341H44.8833L48.5892 63.2876V57.5341H49.4127V64.5204ZM49.4127 53.4245H48.1774C48.1774 53.4245 48.1774 53.4245 48.1774 53.0136V52.6026V51.3698C48.1774 50.9588 48.1774 50.5478 47.7656 50.5478C47.7656 50.5478 47.3539 50.5478 46.9421 50.5478H44.8833V53.4245H44.0597V46.4382H47.3539C47.7656 46.4382 48.1774 46.4382 48.5892 46.8492C49.4127 47.2602 49.4127 47.6711 49.4127 48.493C49.4127 48.904 49.4127 49.315 49.0009 49.7259C49.0009 50.1369 48.5892 50.1369 48.1774 50.5478C48.5892 50.5478 48.5892 50.9588 49.0009 50.9588C49.0009 50.9588 49.4127 51.3698 49.4127 51.7807V52.6026C49.4127 53.0136 49.4127 53.0136 49.4127 53.0136C49.0009 53.0136 49.4127 53.4245 49.4127 53.4245ZM57.2362 62.4656H54.3539L53.5303 64.5204H52.7068L55.1774 57.5341H56.4127L58.8833 64.5204H57.648L57.2362 62.4656Z" fill="#035B8C"/>
<path d="M35.8232 35.7534H34.5879V40.274H35.8232C36.6467 40.274 37.0585 39.863 37.4702 39.0411C37.4702 38.6301 37.882 38.2192 37.882 37.8082C37.882 36.9863 37.882 36.5753 37.4702 36.1644C37.0585 36.1644 36.6467 35.7534 35.8232 35.7534Z" fill="#035B8C"/>
<path d="M54.7656 61.6439H56.8244L56.0009 58.3562L54.7656 61.6439Z" fill="#035B8C"/>
<path d="M30.883 89.1782L0.824219 24.2467L44.883 0.822021L74.5301 20.548L72.4713 74.3837L30.883 89.1782ZM2.88304 25.0686L31.7066 87.5343L70.8242 73.5617L72.883 21.7809L44.4713 2.87682L2.88304 25.0686Z" fill="white"/>
<path d="M36.2344 7.80814L57.6461 6.16431L71.6461 46.4383L36.2344 7.80814Z" fill="#035B8C"/>
</svg>
